<svg width="183" height="99" viewBox="0 0 183 99" fill="none" xmlns="http://www.w3.org/2000/svg">
<path d="M162.518 0.946777H56L76.0001 25.9998H162.518V0.946777Z" fill="#C2B8FF"/>
<path d="M182.518 25.9998L162.518 0.946777V25.9998H182.518Z" fill="#C2B8FF"/>
<path d="M158 98.553C158 98.553 157.753 88.4785 149.588 88.0162L158 98.553Z" fill="#7B66FF"/>
<path d="M76.0001 25.9998C76.0001 25.9998 65.2757 63.3747 45.5001 68.4998C42.0523 69.3934 38.9238 68.5989 35.9306 67.8389C32.1957 66.8905 28.6714 65.9955 25.0001 68.4998C23.2521 69.6922 22.1344 71.4314 21.4765 73.4815L52.5 73.4468C52.5 73.4468 52.5964 62.9468 62 62.9468C71 62.9468 71 73.5 71 73.5H120.273C120.273 73.5 120.258 62.9468 129 62.9468C137.742 62.9468 138 73.5 138 73.5H162.518V25.9998H76.0001Z" fill="#9E8EFF"/>
<path d="M45.5001 68.4998C65.2757 63.3747 76.0001 25.9998 76.0001 25.9998L56 0.946777C56 0.946777 45.2756 38.3216 25.5 43.4468L45.5001 68.4998Z" fill="#B4A8FF"/>
<path fill-rule="evenodd" clip-rule="evenodd" d="M21.4765 73.4815C18.4853 82.8032 25.0001 98.553 25.0001 98.553L72.5001 98.4998C72.5001 98.4998 72.5964 87.9998 82 87.9998C82.2003 87.9998 82.3961 88.005 82.5876 88.0153C91 88.4643 91 98.553 91 98.553H140.273C140.273 98.553 140.258 87.9998 149 87.9998C149.201 87.9998 149.397 88.0054 149.588 88.0162C157.753 88.4785 158 98.553 158 98.553H182.518V25.9998H162.518V73.5H138C138 73.5 137.742 62.9468 129 62.9468C120.258 62.9468 120.273 73.5 120.273 73.5H71C71 73.5 71 62.9468 62 62.9468C52.5964 62.9468 52.5 73.4468 52.5 73.4468L21.4765 73.4815Z" fill="#9E8EFF"/>
<path d="M4.99997 43.4468L25.0001 68.4998C28.6714 65.9955 32.1957 66.8905 35.9306 67.8389C38.9238 68.5989 42.0523 69.3934 45.5001 68.4998L25.5 43.4468C22.0522 44.3403 18.9237 43.5459 15.9304 42.7858C12.1956 41.8374 8.67127 40.9425 4.99997 43.4468Z" fill="#A799FF"/>
<path d="M4.99997 43.4468C-4.69568 50.0604 4.99997 73.5 4.99997 73.5L21.4765 73.4815C22.1344 71.4314 23.2521 69.6922 25.0001 68.4998L4.99997 43.4468Z" fill="#9180FF"/>
<path d="M4.99997 73.5L25.0001 98.553C25.0001 98.553 18.4853 82.8032 21.4765 73.4815L4.99997 73.5Z" fill="#9180FF"/>
<path d="M91 98.553C91 98.553 91 88.4643 82.5876 88.0153L91 98.553Z" fill="#7B66FF"/>
</svg>
