<svg width="306" height="190" viewBox="0 0 306 190" fill="none" xmlns="http://www.w3.org/2000/svg">
<path d="M211.451 53.1567L240.005 63.4883L306 87.3675V155.789L211.451 190L116.902 155.789L84.8244 114.905L65.9953 90.9066L116.902 87.3675L160 105.695L180.5 114.412L192.888 119.681L211.451 127.574V112.964V77V53.1567Z" fill="#7298D1"/>
<path d="M116.902 155.789L84.8244 114.905L50.9067 102.632L116.902 155.789Z" fill="#3967AD"/>
<path d="M0 37.7499L50.9067 102.632L84.8244 114.905L65.9953 90.9066L0 37.7499Z" fill="#3967AD"/>
<path d="M65.9953 90.9066L116.902 87.3675L50.9067 34.2108L0 37.7499L65.9953 90.9066Z" fill="#9FB9DF"/>
<path d="M211.451 127.574L198.935 117.493L192.888 119.681L211.451 127.574Z" fill="#3967AD"/>
<path fill-rule="evenodd" clip-rule="evenodd" d="M211.451 53.1567V77V112.964L240.005 102.632V63.4883L211.451 53.1567ZM192.888 119.681L180.5 114.412L160 105.695L116.902 87.3675L65.9953 90.9066L84.8244 114.905L145.456 136.843L192.888 119.681Z" fill="#7298D1"/>
<path d="M306 87.3675L240.005 34.2108V63.4883L306 87.3675Z" fill="#8CABD9"/>
<path d="M240.005 34.2108L145.456 0L211.451 53.1567L240.005 63.4883V34.2108Z" fill="#8CABD9"/>
<path d="M211.451 53.1567L145.456 0L211.451 77V53.1567Z" fill="#3F73C0"/>
<path d="M211.451 112.964V77L145.456 0L211.451 112.964Z" fill="#4375C1"/>
<path d="M198.935 117.493L211.451 112.964L145.456 0L198.935 117.493Z" fill="#4778C2"/>
<path d="M198.935 117.493L145.456 0L175.715 98.7903L198.935 117.493Z" fill="#4B7BC4"/>
<path d="M192.888 119.681L198.935 117.493L175.715 98.7903L180.5 114.412L192.888 119.681Z" fill="#4B7BC4"/>
<path fill-rule="evenodd" clip-rule="evenodd" d="M145.456 74.4177V0L156.973 83.694L145.456 74.4177Z" fill="#5281C6"/>
<path d="M175.715 98.7903L145.456 0L156.973 83.694L175.715 98.7903Z" fill="#4F7EC5"/>
<path fill-rule="evenodd" clip-rule="evenodd" d="M145.456 74.4177L50.9067 34.2108L116.902 87.3675L160 105.695L156.973 83.694L145.456 74.4177Z" fill="#5281C6"/>
<path d="M160 105.695L180.5 114.412L175.715 98.7903L156.973 83.694L160 105.695Z" fill="#4F7EC5"/>
<path d="M198.935 117.493L211.451 127.574V112.964L198.935 117.493Z" fill="#3663A5"/>
</svg>
