<svg width="368" height="238" viewBox="0 0 368 238" fill="none" xmlns="http://www.w3.org/2000/svg">
<path d="M14.7285 100.044L73.1439 30.4239L164.123 20.6757L177.049 19.2907L181.701 62.7047L183.761 81.9322L266.537 9.70233L352.793 63.8208L367.549 201.533L29.484 237.755L14.7285 100.044Z" fill="#B3B3B3"/>
<path d="M29.484 237.755L14.7285 100.044L0.711875 91.2492L15.4673 228.961L29.484 237.755Z" fill="#999999"/>
<path d="M14.7285 100.044L73.1439 30.4239L59.1272 21.6296L0.711875 91.2492L14.7285 100.044Z" fill="#D9D9D9"/>
<path d="M73.1439 30.4239L164.123 20.6757L163.032 10.4964L59.1272 21.6296L73.1439 30.4239Z" fill="#F2F2F2"/>
<path d="M177.049 19.2907L163.032 10.4964L164.123 20.6757L177.049 19.2907Z" fill="#F2F2F2"/>
<path d="M183.761 81.9322L266.537 9.70233L252.52 0.907988L181.701 62.7047L183.761 81.9322Z" fill="#D9D9D9"/>
</svg>
