<svg width="951" height="232" viewBox="0 0 951 232" fill="none" xmlns="http://www.w3.org/2000/svg">
<path d="M132.19 75.74C126.476 71.097 120.761 67.704 115.047 65.561C109.332 63.2395 103.796 62.0787 98.4387 62.0787C91.6527 62.0787 86.1167 63.6859 81.8308 66.9003C77.5449 70.1148 75.4019 74.3114 75.4019 79.4902C75.4019 83.0618 76.4734 86.0084 78.6164 88.3299C80.7593 90.6514 83.5273 92.7051 86.9203 94.4909C90.4919 96.0981 94.4207 97.5267 98.7066 98.7768C103.171 100.027 107.546 101.366 111.832 102.795C128.976 108.509 141.476 116.188 149.334 125.832C157.37 135.296 161.388 147.708 161.388 163.065C161.388 173.423 159.602 182.798 156.031 191.192C152.638 199.585 147.548 206.817 140.762 212.889C134.155 218.782 125.94 223.336 116.118 226.55C106.475 229.943 95.4921 231.64 83.1701 231.64C57.6333 231.64 33.9715 224.05 12.1848 208.871L34.6858 166.548C42.5433 173.512 50.3115 178.691 57.9904 182.084C65.6694 185.477 73.259 187.174 80.7593 187.174C89.3311 187.174 95.6707 185.209 99.778 181.28C104.064 177.352 106.207 172.887 106.207 167.887C106.207 164.851 105.671 162.262 104.6 160.119C103.528 157.797 101.742 155.744 99.2423 153.958C96.7422 151.993 93.4385 150.208 89.3311 148.6C85.4024 146.993 80.5808 145.207 74.8662 143.243C68.0802 141.1 61.3835 138.779 54.776 136.278C48.3472 133.6 42.5433 130.117 37.3645 125.832C32.3643 121.546 28.257 116.188 25.0425 109.759C22.0067 103.152 20.4888 94.848 20.4888 84.8476C20.4888 74.8471 22.096 65.8289 25.3104 57.7928C28.7034 49.5781 33.3465 42.6135 39.2396 36.899C45.3113 31.0059 52.6331 26.4521 61.2049 23.2377C69.9553 20.0232 79.6879 18.416 90.4026 18.416C100.403 18.416 110.85 19.8447 121.743 22.7019C132.637 25.3806 143.084 29.3987 153.084 34.756L132.19 75.74Z" fill="white"/>
<path d="M272.384 68.5076V226.015H219.882V193.368V120.541V91.243V77.8495V68.5076H198.318H176.755V54.4109V24.0413H189.183H276.24H295.876H315.511V32.6466V36.832V42.6917V47.7142V54.4109V68.5076H309.688H303.864H299.679H277.914H272.384Z" fill="#63B955"/>
<path d="M453.78 68.5076H391.366V102.259H450.297V146.725H391.366V181.548H453.78V226.015H338.864V24.0413H453.78V68.5076Z" fill="white"/>
<path d="M601.459 151.011L577.887 83.7761L554.314 151.011H601.459ZM615.389 190.924H540.385L528.331 226.015H472.346L549.225 24.0413H606.549L683.427 226.015H627.443L615.389 190.924Z" fill="white"/>
<path d="M697.292 226.015L731.579 24.0413H783.546L823.994 131.725L864.174 24.0413H916.141L950.428 226.015H898.194L880.782 109.759L833.101 226.015H812.208L766.938 109.759L749.526 226.015H697.292Z" fill="#0D121D"/>
<path d="M38.1339 49.7819C35.8943 48.4905 30.7559 50.5012 26.5656 56.0428C23.2133 60.476 19.9632 58.8671 18.7571 57.5085L17.5093 62.2601C17.0025 64.289 15.9029 68.4959 15.5585 69.0932C15.128 69.8397 16.5066 72.6241 18.1576 74.0736C19.4784 75.2331 24.1243 74.3642 26.2821 73.7848C35.8942 71.2039 55.7929 65.7347 58.4913 64.5054C61.4425 64.2177 61.0215 59.8302 60.4421 57.6724C57.9246 54.5628 52.686 48.5245 51.8708 49.2481C50.8519 50.1527 40.3734 51.0734 38.1339 49.7819Z" fill="#927DFF"/>
<path d="M15.9424 67.4958L15.9374 67.5146L15.9339 67.5338C15.6683 68.9862 15.68 71.1283 16.6996 72.7124C17.2201 73.521 17.9984 74.1743 19.1019 74.5003C20.195 74.8234 21.5704 74.815 23.2804 74.3767C29.5485 72.7702 42.8095 69.1712 54.1868 66.0834C54.8179 65.9122 55.4432 65.7424 56.0613 65.5747L56.0655 65.5736C57.765 65.0963 58.9597 64.4146 59.744 63.5875C60.5357 62.7526 60.8821 61.7973 60.9275 60.8368C61.0165 58.955 59.9537 57.0952 58.9963 55.9711L58.9836 55.9563L58.9699 55.9425L35.7414 32.6206L28.9455 7.31098C29.4182 7.12204 29.7889 6.86423 30.0455 6.55635C30.3862 6.14764 30.5238 5.64582 30.3904 5.16787C30.1141 4.17773 28.9228 3.78747 27.5786 4.14838L17.1676 6.94386C15.8618 7.29447 15.1031 8.23264 15.3649 9.20745C15.5931 10.0574 16.4786 10.4946 17.5672 10.3604L24.3646 35.6754L15.9424 67.4958Z" fill="#C7EEFF" fill-opacity="0.21" stroke="#C0C0C0"/>
<path d="M188.684 40.1829L188.684 40.6829H189.184H207.937V53.9134H198.319H198.319L176.755 53.9107L176.755 54.9107L197.819 54.9134L197.818 68.5073L198.818 68.5074L198.819 54.9134H208.437H208.937V54.4134V40.1829V39.6829H208.437H189.684L189.682 24.041L188.682 24.0411L188.684 40.1829ZM237.735 78.352L238.235 78.3521V77.852V59.0989H248.954V90.7445L219.882 90.7427L219.882 91.7427L248.954 91.7445V167.39H238.235V120.544V120.044L237.735 120.044L219.882 120.041L219.882 121.041L237.235 121.044V167.89V168.39H237.735H248.954V192.871H237.735H237.235L219.882 192.868L219.882 193.868L237.235 193.87V216.809V217.309H237.735H265.359H265.859V216.809V154.027V91.2454V90.7455L265.359 90.7454L249.954 90.7445V59.0989H253.64H254.14V58.5989V36.8345V36.3345H253.64H231.538V29.8007H266.533V37.6716V38.1716H267.033H289.135V61.4472H283.438V46.0425V45.5425H282.938H265.359H264.859V46.0425V54.4134V54.9134H265.359H277.415L277.414 68.5073L278.414 68.5074L278.415 54.4135L278.415 53.9134H277.915H265.859V46.5425H282.438V61.9472V62.4472H282.938H289.635H290.135V61.9472V37.6716V37.1716H289.635H267.533V29.8007H276.241H276.741L276.741 29.3006L276.74 24.041L275.74 24.0412L275.741 28.8007H267.033H231.538H231.038H194.206H193.706V29.3007V34.7585V35.2585H194.206H214.633V46.0425V46.5425H215.133H237.235V58.5989V59.0989V77.3519L219.882 77.3493L219.882 78.3493L237.735 78.352ZM299.68 42.1941L299.18 42.1942L299.18 42.6941L299.179 68.5073L300.179 68.5074L300.18 43.1941L315.511 43.1915L315.511 42.1915L299.68 42.1941ZM303.865 47.2167L303.365 47.2168L303.365 47.7167L303.364 68.5073L304.364 68.5074L304.365 48.2166L315.511 48.214L315.511 47.214L303.865 47.2167ZM309.688 53.9134L309.189 53.9137L309.189 54.4134L309.188 68.5073L310.188 68.5074L310.189 54.9132L315.511 54.9107L315.511 53.9107L309.688 53.9134ZM295.377 36.8346L295.377 37.3346L295.877 37.3345L315.511 37.3318L315.511 36.3318L296.377 36.3344L296.375 24.041L295.375 24.0411L295.377 36.8346ZM302.528 32.6491V33.1492L303.028 33.1491L315.511 33.1464L315.511 32.1464L303.528 32.1489V23.4386H302.528V32.6491Z" stroke="#E0DADA"/>
<mask id="mask0_62_67" style="mask-type:alpha" maskUnits="userSpaceOnUse" x="338" y="24" width="116" height="203">
<path d="M453.78 68.5074H391.366V102.259H450.297V146.725H391.366V181.548H453.78V226.014H338.864V24.0411H453.78V68.5074Z" fill="white"/>
</mask>
<g mask="url(#mask0_62_67)">
<rect x="279.589" y="40.8994" width="155.699" height="63.6189" transform="rotate(-29.9498 279.589 40.8994)" fill="#D9D9D9"/>
<rect x="338.408" y="5.02258" width="155.699" height="63.6189" transform="rotate(9.28815 338.408 5.02258)" fill="#9D9D9D"/>
<rect x="330.037" y="137.283" width="155.699" height="63.6189" transform="rotate(9.28815 330.037 137.283)" fill="#9D9D9D"/>
<rect x="325.014" y="41.8546" width="155.699" height="102.22" transform="rotate(9.28815 325.014 41.8546)" fill="#DCDCDC"/>
<rect x="305.592" y="179.138" width="153.828" height="88.5028" transform="rotate(9.28815 305.592 179.138)" fill="#DCDCDC"/>
<rect x="291.308" y="149.844" width="129.389" height="34.4757" transform="rotate(-21.6419 291.308 149.844)" fill="#7D7D7D"/>
<circle cx="407.663" cy="109.659" r="2.51127" fill="#D9D9D9"/>
<circle cx="416.034" cy="131.423" r="2.51127" fill="#D9D9D9"/>
<circle cx="377.528" cy="183.323" r="2.51127" fill="#D9D9D9"/>
<circle cx="429.428" cy="195.042" r="2.51127" fill="#D9D9D9"/>
<circle cx="447.844" cy="57.7593" r="2.51127" fill="#D9D9D9"/>
</g>
<path fill-rule="evenodd" clip-rule="evenodd" d="M515.013 162.272C515.068 160.194 515.128 157.875 514.811 155.654C513.747 148.204 501.45 150.135 495.558 154.817C489.583 159.565 488.861 174.907 488.861 179.092C488.861 183.278 492.302 201.831 503.092 208.39C512.309 213.995 524.759 212.068 534.901 208.39C544.308 204.979 549.998 198.171 551.643 188.3C553.317 178.255 553.458 173.819 552.48 165.699C551.141 152.975 534.064 148.957 531.553 154.817C529.178 160.357 522.123 171.18 516.485 169.047C514.852 168.429 514.924 165.675 515.013 162.272ZM506.44 164.025C506.44 162.175 504.941 160.676 503.092 160.676C501.242 160.676 499.743 162.175 499.743 164.025C499.743 165.874 501.242 167.373 503.092 167.373C504.941 167.373 506.44 165.874 506.44 164.025Z" fill="#EDB185" stroke="black"/>
<path d="M502.254 189.138C504.933 187.128 502.857 185.588 504.766 184.952C507.277 184.115 507.556 182.999 509.788 186.626C510.625 188.3 510.625 193.323 510.625 196.671C510.625 200.857 504.766 200.02 499.743 199.183C494.721 198.346 498.906 191.649 502.254 189.138Z" fill="#927DFF" stroke="black" stroke-width="0.5"/>
<path d="M522.996 190.817C525.674 188.808 526.296 192.285 528.204 191.649C530.716 190.811 532.669 187.191 534.901 190.818C535.738 192.492 530.716 194.997 530.716 198.345C530.716 202.531 526.53 200.019 521.508 199.182C516.485 198.345 519.647 193.329 522.996 190.817Z" fill="#E93C30" stroke="black" stroke-width="0.5"/>
<path d="M537.412 178.255C540.091 176.246 541.363 173.032 543.272 172.396C545.783 171.558 547.007 172.027 549.239 175.654C550.077 177.329 547.457 179.092 547.457 182.441C547.457 186.626 545.783 184.115 540.761 183.278C535.738 182.441 534.064 180.766 537.412 178.255Z" fill="#30B1E9" stroke="black" stroke-width="0.5"/>
<mask id="mask1_62_67" style="mask-type:alpha" maskUnits="userSpaceOnUse" x="472" y="24" width="212" height="203">
<path d="M601.459 151.011L577.887 83.7759L554.314 151.011H601.459ZM615.388 190.924H540.385L528.331 226.014H472.346L549.225 24.0411H606.549L683.427 226.014H627.443L615.388 190.924Z" fill="white"/>
</mask>
<g mask="url(#mask1_62_67)">
<path d="M539.107 49.8322C541.476 56.5074 547.28 61.5276 553.488 64.6419C561.11 68.4653 569.995 70.1508 578.48 68.7507C584.726 67.72 591.952 64.5811 594.486 58.2756C599.344 46.1846 583.833 36.2333 573.287 39.4022C563.732 42.2734 566.117 54.3578 575.522 54.8892C581.953 55.2525 588.023 49.3777 585.207 42.7434C582.609 36.6211 571.165 34.7921 569.54 42.6531C567.976 50.2161 578.293 55.1344 584.44 52.9928C589.145 51.3535 587.925 47.4856 586.652 44.1431" stroke="#927DFF" stroke-opacity="0.75" stroke-width="22" stroke-linecap="round"/>
<path d="M589.903 131.511C589.903 117.097 590.313 102.707 591.664 88.3465C592.817 76.0885 594.579 63.9241 596.676 51.7962C597.67 46.042 599.077 40.213 599.701 34.3903C599.739 34.0311 599.864 33.6165 599.678 33.3067C599.207 32.5211 598.819 34.9371 598.549 35.8126C597.169 40.2886 596.358 44.9547 595.863 49.6064C595.206 55.7825 594.744 62.3054 595.705 68.4798C596.987 76.7252 602.047 76.4156 608.731 73.2432C615.659 69.9548 621.931 65.3767 628.146 60.9394C630.302 59.4003 635.474 54.6689 635.212 57.3047C635.074 58.7051 634.557 60.0435 634.151 61.391C630.234 74.3983 631.346 68.8088 627.108 84.5537C622.781 100.628 619.28 116.883 617.062 133.385C616.603 136.798 616.216 140.223 615.955 143.657C615.809 145.578 615.739 147.513 615.842 149.437C615.89 150.328 615.653 151.577 616.407 152.055C617.001 152.432 617.713 151.444 618.19 150.927C620.491 148.434 624.203 142.144 625.618 139.819C629.572 133.321 633.368 126.724 637.086 120.088C637.574 119.218 639 116.589 638.531 117.469C636.985 120.374 635.54 123.046 633.971 126.003C630.06 133.372 626.096 140.734 622.638 148.33C621.964 149.81 621.264 151.284 620.741 152.823C620.239 154.304 620.125 155.33 621.78 154.132C625.316 151.573 628.357 148.059 631.578 145.125C632.874 143.943 636.264 140.607 636.048 142.348C635.565 146.241 633.395 150.485 632.278 154.2C631.704 156.106 628.832 163.04 630.404 165.33C631.847 167.432 638.604 162.467 639.096 162.169C640.61 161.253 651.211 152.973 653.205 155.645C655.534 158.764 651.537 168.821 650.858 171.516C649.34 177.534 646.898 184.06 646.681 190.344C646.489 195.902 653.634 189.182 655.824 188.47C657.109 188.053 655.14 191.478 655.644 192.331C656.05 193.018 657.094 192.872 657.766 192.872" stroke="#E93C30" stroke-opacity="0.75" stroke-width="22" stroke-linecap="round"/>
<path d="M523.259 98.5958C523.227 98.8228 523.013 99.0469 523.259 98.4603C524.573 95.3265 526.991 92.4031 529.152 89.8364C529.757 89.1167 537.167 80.8508 538.611 84.5085C540.207 88.5521 537.612 93.9039 539.717 97.7379C540.743 99.607 543.602 98.7481 545.113 98.3249C551.431 96.5548 557.289 93.3454 563.399 91.0103C564.758 90.491 568.804 88.4678 570.42 89.9041C571.717 91.0566 570.038 94.1392 569.607 95.2997C569.482 95.6379 568.188 98.1513 569.178 98.5506C571.311 99.4099 575.365 96.7984 577.351 96.293C579.704 95.6942 581.908 95.3956 582.701 98.2571C583.565 101.37 583.295 106.424 583.175 109.274C582.917 115.448 582.448 119.616 581.821 125.754C581.514 128.757 578.627 139.509 582.995 141.49C586.335 143.005 590.384 141.502 593.809 142.98C599.603 145.481 595.657 156.822 596.36 161.627C596.771 164.442 597.964 166.846 599.272 169.326C600.953 172.514 602.123 175.773 603.561 179.056C605.83 184.233 611.488 183.394 616.272 183.526C617.512 183.56 619.293 183.412 620.222 184.474C621.127 185.508 620.859 187.124 621.938 188.064C624.549 190.337 629.011 187.852 631.804 190.705C634.114 193.066 634.181 196.128 637.109 198.155C640.395 200.43 644.164 202.319 647.923 203.664C652.241 205.208 654.842 205.879 657.766 209.533" stroke="#30B1E9" stroke-opacity="0.75" stroke-width="22" stroke-linecap="round"/>
</g>
<mask id="mask2_62_67" style="mask-type:alpha" maskUnits="userSpaceOnUse" x="697" y="24" width="254" height="203">
<path d="M697.292 226.014L731.579 24.0411H783.546L823.994 131.725L864.174 24.0411H916.141L950.428 226.014H898.194L880.782 109.759L833.101 226.014H812.208L766.938 109.759L749.526 226.014H697.292Z" fill="#0D121D"/>
</mask>
<g mask="url(#mask2_62_67)">
<path d="M725.866 76.9266C725.866 77.3827 725.616 77.8132 725.418 78.2096C724.831 79.3837 724.113 80.4785 723.625 81.7031C722.887 83.551 722.803 85.2617 723.501 87.1287C724.002 88.4705 725.893 89.8085 727.118 90.4212" stroke="white" stroke-linecap="round"/>
<path d="M728.37 82.0742C729.563 82.2979 730.77 82.8944 731.895 83.3263C733.131 83.8009 734.428 84.2147 735.62 84.7948C736.131 85.0436 736.613 85.5175 737.135 85.6913" stroke="white" stroke-linecap="round"/>
<path d="M731.431 87.3605C731.431 84.7604 733.406 82.5752 734.492 80.4045" stroke="white" stroke-linecap="round"/>
<path d="M741.726 79.292C741.726 80.519 743.117 81.5093 743.117 82.77" stroke="white" stroke-linecap="round"/>
<path d="M739.639 81.7957C740.826 81.7957 741.97 81.2199 743.086 80.8528C743.738 80.6381 744.515 79.9872 745.204 79.9872" stroke="white" stroke-linecap="round"/>
<path d="M749.795 72.753C749.264 72.753 748.609 72.6462 748.125 72.8612C748.017 72.9094 747.295 72.9405 747.6 73.2785C747.936 73.6523 748.225 74.0366 748.542 74.4533C749.007 75.0633 749.482 75.8226 749.825 76.5092C749.977 76.8131 749.886 76.9558 750.212 76.6483C750.834 76.061 752.187 74.9789 753.056 74.9789C754.803 74.9789 755.22 76.3038 755.22 77.8308C755.22 78.5277 754.415 79.0405 753.906 79.3457C753.44 79.6252 751.742 79.323 751.742 79.848" stroke="white" stroke-linecap="round"/>
<path d="M753.829 67.1885C755.604 67.1885 757.346 67.0506 758.822 68.2396C759.805 69.0316 760.36 70.1033 760.847 71.2152C761.038 71.6524 760.924 72.289 760.924 72.7533C760.924 73.5313 760.924 74.3093 760.924 75.0874C760.924 75.7469 760.924 76.4064 760.924 77.0659" stroke="white" stroke-linecap="round"/>
<path d="M758.976 62.1802C758.976 61.543 759.069 61.3455 759.742 61.3455C760.417 61.3455 761.068 61.0673 761.759 61.0673C762.68 61.0673 762.535 64.5452 761.968 64.5452C761.538 64.5452 760.469 64.7725 760.507 64.1279C760.525 63.8125 761.704 63.5714 761.968 63.5714C762.739 63.5714 763.365 63.7338 764.093 63.9578C764.649 64.129 765.454 63.9479 765.932 64.267" stroke="white" stroke-linecap="round"/>
<path d="M771.219 68.8577C772.003 68.8577 772.652 68.7179 773.414 68.5486C774.135 68.3882 775.169 68.0652 775.81 67.7448" stroke="white" stroke-linecap="round"/>
<path d="M776.923 61.6235C777.227 61.6574 777.585 62.1084 777.727 62.35C778.235 63.2165 778.659 64.2001 779.118 65.1015C779.406 65.6665 779.483 66.3149 779.775 66.8405C780.019 67.2809 780.203 67.7919 780.478 68.224C780.689 68.5553 781.066 69.3989 781.375 69.5533" stroke="white" stroke-linecap="round"/>
<path d="M786.105 58.563C784.305 58.563 783.74 60.7551 783.74 62.1801C783.74 62.8645 783.977 64.1596 784.652 64.5451C785.488 65.0229 785.942 66.2686 787.048 66.3537C788.146 66.4381 787.993 66.341 788.686 65.4494C789.221 64.7615 788.916 64.3485 788.578 63.7104C787.781 62.2058 786.185 62.6341 785.687 64.1278" stroke="white" stroke-linecap="round"/>
<path d="M791.391 59.9541C791.396 59.9175 793.076 59.4024 793.269 59.3281C794.144 58.9918 794.834 58.1572 795.704 57.8673" stroke="white" stroke-linecap="round"/>
<path d="M792.643 63.0146C794.459 62.9191 795.851 60.9279 797.651 60.9279" stroke="white" stroke-linecap="round"/>
<path d="M821.226 170.839C822.967 172.739 824.121 174.986 825.923 176.788C826.801 177.667 828.564 179.077 828.949 180.233" stroke="white" stroke-linecap="round"/>
<path d="M822.896 180.233C822.896 177.657 825.196 175.84 826.236 173.761" stroke="white" stroke-linecap="round"/>
<path d="M829.576 168.96C830.617 168.035 833.069 169.39 833.438 170.422C833.831 171.524 833.601 173.491 832.174 173.75C831.648 173.846 830.411 173.988 830.411 173.24C830.411 172.259 831.505 172.3 832.29 172.3C833.536 172.3 834.192 173.043 835.212 173.553" stroke="white" stroke-linecap="round"/>
<path d="M840.013 175.64C840.013 176.281 840.381 180.232 839.595 180.232" stroke="white" stroke-linecap="round"/>
<path d="M837.508 177.728H842.309" stroke="white" stroke-linecap="round"/>
<path d="M852.538 172.091C851.789 172.091 850.789 172.263 850.079 172.045C848.551 171.575 848.78 172.367 848.78 173.761C848.78 174.569 848.29 176.746 849.407 176.684C850.367 176.63 851.209 176.058 852.225 176.058C855.077 176.058 853.894 178.824 852.665 180.325C852.031 181.101 851.58 181.494 850.543 181.682C849.699 181.836 848.154 181.783 848.154 180.65" stroke="white" stroke-linecap="round"/>
<path d="M891.156 177.728C892.302 177.728 897.373 177.22 897.836 178.145" stroke="white" stroke-linecap="round"/>
<path d="M900.967 173.97V184.616" stroke="white" stroke-linecap="round"/>
<path d="M905.142 174.597C905.142 175.377 905.142 176.158 905.142 176.939C905.142 177.48 905.142 178.022 905.142 178.563C905.142 179.18 905.547 178.81 906 178.76C907.587 178.584 909.071 178.145 910.674 178.145C910.984 178.145 910.778 176.318 910.778 175.849C910.778 174.121 910.778 176.619 910.778 177.102C910.778 178.315 910.778 179.529 910.778 180.743C910.778 182.112 911.196 183.335 911.196 184.616" stroke="white" stroke-linecap="round"/>
<path d="M915.788 177.728H921.842" stroke="white" stroke-linecap="round"/>
<path d="M917.249 180.859C918.452 180.859 919.782 180.686 920.96 180.905C921.795 181.061 922.789 180.915 923.512 181.276" stroke="white" stroke-linecap="round"/>
<path d="M929.774 172.926C929.748 173.132 928.767 173.788 928.522 173.924C927.972 174.229 927.684 174.772 927.385 175.327C926.66 176.674 926.852 178.236 926.852 179.711C926.852 182.197 927.472 184.616 930.296 184.616C931.201 184.616 931.235 183.443 931.235 182.691C931.235 180.97 931.444 179.258 931.444 177.519C931.444 176.857 931.824 174.179 930.818 174.179C929.722 174.179 929.16 174.057 928.522 175.014" stroke="white" stroke-linecap="round"/>
<path d="M861.936 64.9237C862.986 66.0464 863.797 67.4756 865.002 68.4398C865.54 68.8698 866.07 69.318 866.577 69.79C867.907 71.0259 869.133 72.3738 870.417 73.6578" stroke="white" stroke-linecap="round"/>
<path d="M861.81 72.8981C862.853 70.9857 864.313 69.3388 865.86 67.8349C866.521 67.192 867.242 66.2349 868.139 65.9362" stroke="white" stroke-linecap="round"/>
<path d="M873.582 67.4554H878.771" stroke="white" stroke-linecap="round"/>
<path d="M873.328 71.506H878.012" stroke="white" stroke-linecap="round"/>
<path d="M887.885 59.4806C886.799 59.4806 885.48 59.1472 885.48 60.6199C885.48 61.3582 885.48 62.0966 885.48 62.835C885.48 63.4929 886.862 63.8973 887.309 64.0938C887.867 64.3395 888.481 64.4595 888.743 65.0502C888.871 65.3382 889.028 65.7997 888.574 65.9292C887.71 66.1761 886.885 66.6779 885.986 66.9207C885.226 67.1264 884.763 67.576 884.088 67.9334C883.465 68.2629 884.465 68.5837 884.657 68.6577C885.435 68.9569 886.696 68.721 887.505 68.721C888.07 68.721 889.185 68.5643 889.587 69.1007C889.674 69.2169 888.835 69.3995 888.764 69.4313C887.952 69.7965 887.257 70.3973 886.507 70.8658C885.948 71.215 885.227 71.7932 885.227 72.5184C885.227 73.1586 885.043 74.2836 885.607 74.7265C886.526 75.4489 888.379 76.2586 889.531 75.6829" stroke="white" stroke-linecap="round"/>
<path d="M893.581 67.4554H899.024" stroke="white" stroke-linecap="round"/>
<path d="M899.531 62.7719C900.268 62.0351 900.984 61.7593 901.999 61.7593C902.509 61.7593 903.156 62.3999 903.518 62.7086C904.285 63.3619 904.48 64.0935 904.721 65.0574C905.175 66.8769 905.37 69.2234 905.072 71.0981C904.911 72.1124 903.318 73.6818 902.189 73.3765C901.795 73.2702 900.674 72.0226 901.127 71.5693C901.487 71.2098 902.223 70.9338 902.702 71.2036C903.257 71.5158 903.996 72.0748 904.313 72.6452C904.648 73.2483 905.314 73.5468 905.86 73.911" stroke="white" stroke-linecap="round"/>
<path d="M909.277 74.6704C909.277 75.2202 908.816 79.0043 908.012 78.4678" stroke="white" stroke-linecap="round"/>
<path d="M914.594 63.9112C915.329 62.955 916.051 60.6201 917.568 60.6201C919.041 60.6201 919.244 61.2273 919.664 62.6454C920.226 64.5421 920.902 66.679 919.27 68.2149C918.752 68.7022 916.911 70.2069 916.049 69.537C915.555 69.1529 915.983 68.3177 916.239 67.9337C916.698 67.246 917.335 67.2055 918.138 67.357C919.567 67.6267 920.515 69.4845 921.584 70.3668C922.345 70.9954 924.662 72.1481 925.48 71.1263" stroke="white" stroke-linecap="round"/>
</g>
</svg>
