<?xml version="1.0" encoding="UTF-8"?>
<svg id="Layer_1" data-name="Layer 1" xmlns="http://www.w3.org/2000/svg" viewBox="0 0 448.37 537.59">
  <defs>
    <style>
      .cls-1 {
        fill: #f5932d;
      }

      .cls-2 {
        fill: #f0efef;
      }
    </style>
  </defs>
  <path id="D" class="cls-1" d="m165.76,537.59l124.85-64.66,80.28-109.54c9.69-27.8,14.53-59.68,14.53-95.64,0-43.4-7.08-80.76-21.25-112.08-3.54-7.87-7.52-15.29-11.93-22.25L187.79,0h-14.69c52.11,0,123.32,10.76,160.39,32.29,37.07,21.35,65.48,52.06,85.24,92.14,19.76,39.9,29.64,87.67,29.64,143.32s-9.97,104.21-29.9,144.63c-19.93,40.25-48.96,71.22-87.08,92.92-38.12,21.52-111.08,32.29-165.63,32.29"/>
  <path id="B" class="cls-2" d="m0,537.59V0h187.79c37.42,0,68.29,6.47,92.59,19.42,24.31,12.77,42.41,30.01,54.3,51.71,11.88,21.52,17.83,45.41,17.83,71.66,0,23.1-4.11,42.17-12.33,57.22-8.04,15.05-18.71,26.95-32,35.7-13.11,8.75-27.36,15.22-42.75,19.42v5.25c16.43,1.05,32.96,6.82,49.57,17.32,16.61,10.5,30.51,25.55,41.7,45.15,11.19,19.6,16.79,43.57,16.79,71.92s-6.12,51.19-18.36,72.71c-12.24,21.52-31.56,38.59-57.96,51.19-26.4,12.6-60.76,18.9-103.08,18.9H0Zm65.05-57.75h129.04c42.49,0,72.65-8.23,90.49-24.67,18.01-16.62,27.01-36.75,27.01-60.37,0-18.2-4.63-35-13.9-50.4-9.27-15.57-22.47-28-39.6-37.27-17.14-9.45-37.42-14.18-60.85-14.18H65.05v186.9Zm0-243.6h120.65c19.58,0,37.24-3.85,52.98-11.55,15.91-7.7,28.5-18.55,37.77-32.55,9.44-14,14.16-30.45,14.16-49.35,0-23.62-8.22-43.66-24.66-60.11-16.43-16.62-42.49-24.94-78.16-24.94h-122.74v178.5Z"/>
</svg>